<?xml version="1.0" encoding="utf-8"?>
<!-- Generator: Adobe Illustrator 21.0.2, SVG Export Plug-In . SVG Version: 6.00 Build 0)  -->
<svg version="1.1" xmlns="http://www.w3.org/2000/svg" xmlns:xlink="http://www.w3.org/1999/xlink" x="0px" y="0px" width="324px"
	 height="324px" viewBox="0 0 324 324" enable-background="new 0 0 324 324" xml:space="preserve">
<g id="_x31_.Ball" display="none">
	<circle id="bg" display="inline" fill="#ED3531" cx="162" cy="162" r="145.8"/>
	<path id="b1" display="inline" fill="#FFFFFF" d="M194.52,208.23c0,0-0.33,2.8,0.2,3.03c0.99,0.44,6.09,1.38,7.67,3.23
		c1.58,1.84,2.33,3.09,2.6,4.93c0.26,1.84-0.23,22.39-0.23,22.39c0,0.27-0.06,0.54-0.16,0.8h-83.71c-0.28-0.46-0.43-0.93-0.43-1.39
		c0,0-0.2-22.19,0.2-23.87c0.39-1.68,0.69-2.57,2.47-4.05c1.78-1.48,5.33-2.17,6.91-2.17c1.58,0,0.99-0.1,0.99-0.1l-0.02-3.68
		c-17.21-10.74-28.67-29.84-28.67-51.63c0-33.58,27.22-60.8,60.8-60.8c35.54,0,62.12,28.01,62.12,61.59
		C225.26,178.76,212.73,197.87,194.52,208.23z"/>
	<path id="b2" display="inline" fill="#ED3531" d="M163.99,103.05c-29.33,0-53.11,23.69-53.11,52.91c0,29.22,24.37,53.69,53.7,53.69
		c29.33,0,52.51-24.47,52.51-53.69C217.09,126.74,193.32,103.05,163.99,103.05z"/>
	<path id="ex6" display="inline" fill="#FFFFFF" d="M254.98,170.57c0,0-9.33-2.1-9.9-2.24c-2.57-0.58-2.89-3.82-0.74-4.17
		c2.15-0.35,23.17,2.68,24.07,3.35c0.91,0.67,3.36,3.13,0.28,4.86C266.9,173.38,254.98,170.57,254.98,170.57z"/>
	<path id="ex5" display="inline" fill="#FFFFFF" d="M276.94,135.97c0,0,1.83,0.94,1.51,3.06c-0.41,2.8-7.91,3.02-9.96,3.15
		c-2.05,0.13-24.42,2.86-25.32,2.53c-0.9-0.33-1.7-1.24-1.06-2.57c0.64-1.32,19.19-4.4,22.29-5.07
		C267.5,136.4,275.93,134.9,276.94,135.97z"/>
	<path id="ex4" display="inline" fill="#FFFFFF" d="M258.31,105.25c0,0,1.2,1.04,0.51,2.65c-0.69,1.61-7.21,2.77-9.54,3.46
		c-2.7,0.8-16.71,4.58-17.47,4.51c-0.76-0.07-2.57-1.39-1.41-2.98c1.16-1.59,17.77-6.25,20.36-7.13
		C252.78,105.08,257.53,103.2,258.31,105.25z"/>
	<path id="ex3" display="inline" fill="#FFFFFF" d="M75.2,166.49c0,0,9.33-2.1,9.9-2.24c2.57-0.58,2.89-3.82,0.74-4.17
		c-2.15-0.35-23.17,2.68-24.07,3.35c-0.91,0.67-3.36,3.13-0.28,4.86C63.28,169.31,75.2,166.49,75.2,166.49z"/>
	<path id="ex2" display="inline" fill="#FFFFFF" d="M53.24,131.9c0,0-1.83,0.94-1.51,3.06c0.41,2.8,7.91,3.02,9.96,3.15
		c2.05,0.13,24.42,2.86,25.32,2.53c0.9-0.33,1.7-1.24,1.06-2.57c-0.64-1.32-19.19-4.4-22.29-5.07
		C62.68,132.33,54.25,130.83,53.24,131.9z"/>
	<path id="ex1" display="inline" fill="#FFFFFF" d="M71.86,101.18c0,0-1.2,1.04-0.51,2.65c0.69,1.61,7.21,2.77,9.54,3.46
		c2.7,0.8,16.71,4.58,17.47,4.51c0.76-0.07,2.57-1.39,1.41-2.98c-1.16-1.59-17.77-6.25-20.36-7.13
		C77.4,101.01,72.65,99.13,71.86,101.18z"/>
	<path id="questionMark" display="inline" fill="#FFFFFF" d="M169.65,179.28c1.45,1.45,2.21,3.29,2.21,5.34c0,2-0.73,3.79-2.17,5.3
		c-1.45,1.53-3.37,2.33-5.55,2.33c-2.1,0-3.99-0.78-5.46-2.25c-1.47-1.47-2.25-3.31-2.25-5.3c0-2.07,0.74-3.87,2.19-5.36
		c1.45-1.48,3.36-2.27,5.52-2.27C166.3,177.07,168.2,177.83,169.65,179.28z M181.78,135.31L181.78,135.31
		c-1-2.16-2.4-3.99-4.16-5.47c-1.72-1.45-3.73-2.55-5.95-3.28c-2.18-0.72-4.55-1.08-7.04-1.08c-2.5,0-4.88,0.38-7.1,1.13
		c-2.25,0.76-4.28,1.89-6.02,3.36c-1.74,1.47-3.21,3.27-4.36,5.36c-1.15,2.09-1.92,4.45-2.28,7.03l-0.33,2.36l12.41,1.42l0.25-2.32
		c0.21-1.97,0.93-3.58,2.2-4.94c1.16-1.24,2.71-1.84,4.74-1.84c1.98,0,3.53,0.55,4.73,1.67c1.16,1.08,1.72,2.54,1.72,4.46
		c0,1.41-0.27,2.55-0.8,3.37c-0.65,1.02-1.5,1.97-2.5,2.84l-3.05,2.88c-0.96,0.9-1.84,1.81-2.62,2.7c-0.83,0.95-1.54,1.96-2.12,3
		c-0.61,1.09-1.08,2.32-1.4,3.65c-0.31,1.3-0.46,2.75-0.46,4.32v6.18h12.21v-5.14c0-1.18,0.08-2.16,0.23-2.91
		c0.14-0.67,0.36-1.27,0.67-1.81c0.32-0.56,0.78-1.13,1.36-1.69c0.71-0.68,1.59-1.47,2.64-2.36c1.16-0.99,2.24-1.97,3.22-2.89
		c1.09-1.03,2.04-2.16,2.82-3.37c0.78-1.22,1.4-2.6,1.84-4.1c0.44-1.49,0.66-3.23,0.66-5.15
		C183.28,139.95,182.77,137.47,181.78,135.31z"/>
</g>
<g id="_x32_.Eight" display="none">
	<circle id="bg_1_" display="inline" fill="#ED3531" cx="162" cy="162" r="145.8"/>
	<circle id="ball" display="inline" cx="162" cy="162" r="93.15"/>
	<path id="eight" display="inline" fill="#FFFFFF" d="M162,103.77c-25.72,0-46.57,20.85-46.57,46.57s20.85,46.57,46.57,46.57
		s46.57-20.85,46.57-46.57S187.72,103.77,162,103.77z M176.19,174.7c-3.61,3.53-8.24,5.3-13.87,5.3c-5.77,0-10.53-1.78-14.27-5.34
		c-3.77-3.56-5.66-8.03-5.66-13.42c0-7.01,2.82-11.91,8.45-14.72c-4.58-3.23-6.87-7.64-6.87-13.22c0-5.07,1.74-9.3,5.22-12.69
		c3.5-3.4,7.86-5.09,13.06-5.09c5.17,0,9.49,1.7,12.94,5.09c3.45,3.37,5.17,7.61,5.17,12.74c0,5.36-2.28,9.74-6.83,13.14
		c2.51,1.35,4.47,3.32,5.9,5.9c1.46,2.59,2.18,5.5,2.18,8.73C181.61,166.65,179.8,171.17,176.19,174.7z M169.32,153.68
		c2.02,2.02,3.03,4.48,3.03,7.36c0,2.86-1.01,5.31-3.03,7.36c-2.02,2.02-4.46,3.03-7.32,3.03c-2.88,0-5.34-1.02-7.36-3.07
		c-1.99-2.07-2.99-4.55-2.99-7.44c0-2.8,1.01-5.22,3.03-7.24c2.05-2.02,4.49-3.03,7.32-3.03
		C164.86,150.65,167.3,151.66,169.32,153.68z M155.53,139.97c-1.81-1.81-2.71-4.04-2.71-6.71c0-2.48,0.92-4.64,2.75-6.47
		c1.83-1.83,4.03-2.75,6.59-2.75c2.56,0,4.76,0.92,6.59,2.75c1.83,1.83,2.75,4.03,2.75,6.59c0,2.56-0.92,4.76-2.75,6.59
		c-1.83,1.83-4.03,2.75-6.59,2.75C159.57,142.72,157.36,141.81,155.53,139.97z"/>
</g>
<g id="_x33_.Wink">
	<circle id="bg_2_" fill="#ED3531" cx="162" cy="162" r="145.8"/>
	<path id="face" fill-rule="evenodd" clip-rule="evenodd" fill="#FFFFFF" d="M243.07,162c0,44.74-36.3,81-81.07,81
		c-44.77,0-81.07-36.26-81.07-81c0-44.74,36.3-81,81.07-81C206.77,81,243.07,117.26,243.07,162"/>
	<path id="winkeye" fill-rule="evenodd" clip-rule="evenodd" fill="#ED3531" d="M150.36,147.89c0-1.66-0.64-3.21-1.81-4.38
		c-1.17-1.17-2.73-1.81-4.38-1.82h0c-1.66,0-3.21,0.64-4.38,1.82c-4.85,4.85-12.76,4.85-17.61,0c-2.42-2.42-6.35-2.42-8.76,0
		c-2.41,2.41-2.41,6.35,0,8.76c4.69,4.68,10.92,7.26,17.57,7.26c6.64,0,12.88-2.58,17.56-7.26
		C149.72,151.1,150.36,149.54,150.36,147.89z"/>
	<path id="lefteye" fill-rule="evenodd" clip-rule="evenodd" fill="#ED3531" d="M119.88,140.27c0,5.52,4.49,10.01,10.01,10.01
		c5.52,0,10.01-4.49,10.01-10.01s-4.49-10.01-10.01-10.01C124.37,130.26,119.88,134.75,119.88,140.27z"/>
	<path id="righteye_1_" fill-rule="evenodd" clip-rule="evenodd" fill="#ED3531" d="M194.1,130.26c-5.52,0-10.01,4.49-10.01,10.01
		s4.49,10.01,10.01,10.01c5.52,0,10.01-4.49,10.01-10.01S199.62,130.26,194.1,130.26z"/>
	<path id="mouth_2_" fill-rule="evenodd" clip-rule="evenodd" fill="#ED3531" d="M162,199.73c6.93,0,13.45-2.7,18.35-7.6
		c1.17-1.17,2.73-1.82,4.39-1.81c1.65,0,3.21,0.64,4.38,1.81c1.17,1.17,1.82,2.73,1.82,4.38c0,1.66-0.65,3.21-1.81,4.38
		c-7.24,7.24-16.87,11.23-27.12,11.23c-10.24,0-19.87-3.99-27.12-11.23c-1.17-1.17-1.81-2.73-1.81-4.38c0-1.65,0.65-3.21,1.82-4.38
		c1.17-1.17,2.73-1.81,4.38-1.81c1.66,0,3.21,0.64,4.39,1.81C148.55,197.03,155.07,199.73,162,199.73z"/>
</g>
</svg>
